<svg width="244" height="36" viewBox="0 0 244 36" fill="none" xmlns="http://www.w3.org/2000/svg">
<path fill-rule="evenodd" clip-rule="evenodd" d="M112.484 17.5493C112.869 15.6439 112.7 13.672 112.015 11.8519C111.377 10.2118 110.241 8.80881 108.777 7.84186C107.191 6.8275 105.342 6.29663 103.465 6.32507C101.42 6.34403 99.4112 6.86542 97.6188 7.84186C95.7794 8.82777 94.1746 10.1929 92.9077 11.8614C91.622 13.5393 90.7398 15.4922 90.3457 17.5778C89.9609 19.4643 90.1299 21.4172 90.8243 23.1994C91.4812 24.8299 92.6168 26.2235 94.0808 27.1715C95.6668 28.1858 97.5062 28.7072 99.3831 28.6788C101.42 28.6598 103.418 28.1384 105.211 27.162C107.041 26.1856 108.646 24.8299 109.913 23.1709C111.198 21.5214 112.071 19.597 112.475 17.5399L112.484 17.5493ZM118.744 17.5778C118.115 20.7915 116.745 23.8156 114.736 26.3941C112.747 28.9822 110.241 31.1057 107.379 32.6319C104.573 34.1582 101.438 34.9735 98.2475 35.0019C95.3102 35.0493 92.4291 34.2246 89.9422 32.6414C87.6523 31.1436 85.8692 28.9727 84.8463 26.4226C83.7577 23.626 83.4949 20.564 84.0955 17.6157C84.7149 14.3546 86.0851 11.2926 88.1028 8.66661C90.0829 6.05963 92.598 3.91716 95.4791 2.37192C98.2851 0.84565 101.429 0.030374 104.629 0.00193415C107.566 -0.0454656 110.457 0.779291 112.944 2.37192C115.234 3.88872 117.007 6.07859 118.012 8.64765C119.091 11.4916 119.344 14.5821 118.744 17.5588V17.5778Z" fill="#9E9F9E"/>
<path fill-rule="evenodd" clip-rule="evenodd" d="M24.0903 9.44397C24.3812 7.95562 24.2123 6.41987 23.6117 5.02631C23.0392 3.7086 22.0538 2.60892 20.8057 1.90741C19.5294 1.23433 18.1311 0.83617 16.6952 0.741371C15.2218 0.637091 13.7203 0.599172 12.1812 0.637091H6.15631L0 34.1867H8.31477C9.94769 34.1582 11.5806 34.0065 13.1948 33.7506C14.8746 33.4757 16.4888 32.8689 17.934 31.9589C19.3417 31.0298 20.5711 29.8448 21.5377 28.4608C22.4762 27.1146 23.1237 25.5883 23.4615 23.9767C23.8275 22.2798 23.6305 20.5166 22.9078 18.9429C22.1477 17.4735 20.8432 16.3643 19.2854 15.8524C20.5711 15.2647 21.6878 14.3546 22.5137 13.198C23.3114 12.0794 23.8463 10.7996 24.0903 9.44397ZM17.8402 9.94641C17.568 11.321 16.6483 12.4776 15.372 13.0369C14.6963 13.3023 13.9831 13.454 13.2511 13.4919C12.4815 13.5393 11.7683 13.5488 11.102 13.5393H9.93831L11.1958 6.6853H12.322C12.9883 6.66634 13.6828 6.64738 14.4054 6.6379C15.0623 6.61894 15.7192 6.74218 16.3198 6.99814C16.8642 7.22566 17.324 7.62382 17.6243 8.13574C17.9246 8.68557 18.0091 9.33969 17.8495 9.95589L17.8402 9.94641ZM17.3428 23.6923C17.2114 24.3559 16.958 24.9911 16.592 25.5694C16.2072 26.1477 15.6911 26.6217 15.0998 26.9629C14.2928 27.4559 13.4012 27.7972 12.4722 27.9583C11.5994 28.1005 10.7266 28.1574 9.84446 28.1384H7.28246L8.85908 19.5591H11.5525C12.2845 19.5401 13.0165 19.5591 13.7485 19.6254C14.4617 19.6823 15.1468 19.8909 15.7755 20.2416C16.3574 20.5829 16.836 21.0854 17.1738 21.6731C17.4554 22.3083 17.5211 23.0193 17.3522 23.6829L17.3428 23.6923Z" fill="#D9222A"/>
<path fill-rule="evenodd" clip-rule="evenodd" d="M48.9783 6.67582L50.1045 0.646571H32.2549L26.0986 34.1867H43.9388L45.0649 28.1574H33.3811L34.7794 20.4312H45.9658L47.092 14.402H35.8962L37.2945 6.67582H48.9783Z" fill="#D9222A"/>
<path fill-rule="evenodd" clip-rule="evenodd" d="M76.4095 34.1772L82.5658 0.637091H76.4095L71.9143 25.1523L62.5578 0.637091H55.632L49.4757 34.1772H55.632L60.1272 9.75681L69.5682 34.1772H76.4002" fill="#D9222A"/>
<path fill-rule="evenodd" clip-rule="evenodd" d="M146.015 10.8565C146.353 9.26385 146.259 7.60486 145.743 6.05015C145.264 4.60919 144.373 3.33888 143.181 2.40984C142.308 1.72729 141.295 1.24381 140.216 0.99733C139.108 0.741371 137.982 0.627611 136.846 0.637091H126.692L120.536 34.1772H126.692L129.029 21.4646H132.764C134.097 21.4835 135.429 21.3413 136.734 21.0569C138.076 20.763 139.362 20.2037 140.497 19.4264C141.97 18.4025 143.228 17.0943 144.185 15.5775C145.096 14.1365 145.724 12.525 146.025 10.847L146.015 10.8565ZM139.859 10.9513C139.681 11.9182 139.23 12.8094 138.564 13.5298C137.888 14.2598 137.034 14.8001 136.086 15.0845C135.702 15.1983 135.307 15.2931 134.904 15.35C134.491 15.4163 134.078 15.4448 133.656 15.4448H130.146L131.722 6.67582H135.138C135.899 6.66634 136.649 6.75166 137.391 6.95074C138.217 7.1593 138.939 7.66174 139.418 8.37274C139.896 9.14061 140.056 10.0696 139.859 10.9513Z" fill="#1A1918"/>
<path fill-rule="evenodd" clip-rule="evenodd" d="M162.044 34.1772L163.17 28.1479H153.007L158.046 0.637091H151.89L145.734 34.1772H162.044Z" fill="#1A1918"/>
<path fill-rule="evenodd" clip-rule="evenodd" d="M188.574 34.1772H195.36L187.542 0.637091H182.737L162.739 34.1772H169.524L174.779 25.503H186.566L188.584 34.1772H188.574ZM183.582 9.30177L185.243 19.4738H178.139L183.582 9.30177Z" fill="#1A1918"/>
<path fill-rule="evenodd" clip-rule="evenodd" d="M215.227 9.52929H221.561C222.049 7.14034 221.421 4.65659 219.872 2.78904C218.296 0.97837 216.006 -0.0454656 213.613 0.00193415C211.83 0.0208941 210.075 0.447492 208.489 1.26277C206.874 2.06856 205.448 3.22512 204.303 4.63763C203.158 6.05015 202.379 7.7281 202.06 9.52929C201.816 10.6669 201.826 11.8519 202.079 12.9895C202.314 14.0702 202.783 15.094 203.449 15.9757C204.078 16.7815 204.876 17.4451 205.786 17.9096C206.715 18.3646 207.672 18.7533 208.667 19.0661C209.53 19.341 210.375 19.7013 211.182 20.1279C211.961 20.526 212.608 21.1328 213.078 21.8722C213.547 22.7538 213.678 23.7777 213.434 24.7446C212.881 27.162 210.769 28.9063 208.31 28.9727C207.194 29.0296 206.096 28.6409 205.27 27.8825C204.5 27.0388 204.209 25.8633 204.491 24.7446H198.062C197.706 26.5174 197.903 28.3565 198.635 30.006C199.329 31.5228 200.465 32.7931 201.891 33.6463C203.412 34.5564 205.157 35.0209 206.921 35.0019C208.902 34.983 210.844 34.4995 212.599 33.5799C214.373 32.6699 215.94 31.3806 217.179 29.7974C218.427 28.2238 219.272 26.3657 219.647 24.3844C220.219 21.1612 219.516 18.6206 217.535 16.753C216.747 15.9851 215.818 15.3689 214.814 14.9329C213.8 14.4873 212.74 14.0702 211.651 13.6626C210.713 13.3497 209.831 12.8852 209.042 12.288C208.263 11.6338 207.926 10.5721 208.188 9.57669C208.357 8.60973 208.826 7.7281 209.54 7.05502C210.253 6.39143 211.182 6.03119 212.139 6.03119C213.031 6.00275 213.894 6.34403 214.532 6.97918C215.152 7.67122 215.414 8.60973 215.236 9.52929" fill="#1A1918"/>
<path fill-rule="evenodd" clip-rule="evenodd" d="M242.874 6.67582L244 0.646571H225.522L224.396 6.67582H230.505L225.475 34.1867H231.631L236.661 6.67582H242.864" fill="#1A1918"/>
</svg>
