<svg viewBox="0 0 65 27" xmlns="http://www.w3.org/2000/svg"><path d="M26.722.614c-.039.04-.072.55-.072 1.134V2.81l-9.181.03-9.182.031-.875.297c-1.031.349-2.177 1.115-2.906 1.943-.65.737-1.325 2.106-1.494 3.032l-.133.721-1.064.037c-.799.027-1.09.077-1.167.199-.06.094-.104 1.685-.105 3.757-.001 3.124.021 3.616.169 3.764.129.129.401.171 1.121.171h.951l.073 1.454c.042.85.162 1.807.287 2.302.736 2.914 3.132 5.312 6.119 6.124.838.228 1.088.237 7.737.277 4.755.029 7.084.005 7.566-.079 1.551-.27 2.409-1.369 2.409-3.085 0-.697.377-1.793.873-2.535 1.129-1.692 3.125-2.576 5.179-2.295 1.151.157 2.06.623 2.949 1.511.996.994 1.356 1.783 1.558 3.408.085.686.226 1.384.313 1.551.25.477.837 1.021 1.37 1.269.48.223.6.227 7.8.223 7.202-.004 7.325-.008 8.179-.243 2.724-.752 4.914-2.688 5.86-5.18.391-1.031.577-2.163.582-3.538l.004-1.164h1.007c.639 0 1.055-.048 1.138-.13.096-.096.13-1.101.13-3.849V9.095l-.278-.106c-.153-.058-.664-.106-1.136-.106-.848 0-.858-.003-.918-.298-.362-1.784-.793-2.62-1.948-3.775-.648-.648-1.088-.981-1.684-1.274-1.458-.717-1.49-.719-11.271-.719h-8.765V1.809c0-.639-.048-1.055-.13-1.137-.098-.098-1.482-.13-5.561-.13-2.988 0-5.464.032-5.504.072m10.22 1.553v.65h-9.317v-1.3h9.317v.65m19.312 1.784c2.088.442 3.932 2.332 4.311 4.418.072.398.1 2.594.078 6.067-.035 5.352-.04 5.456-.286 6.201-.415 1.254-.941 2.086-1.954 3.091-.69.683-1.161 1.042-1.812 1.38-1.652.855-1.444.837-9.574.837-7.073.001-7.211-.003-7.583-.222-.605-.355-.839-.802-.92-1.757-.301-3.557-2.837-5.996-6.244-6.004-1.716-.004-3.029.506-4.253 1.65-1.214 1.136-1.86 2.44-1.975 3.989-.084 1.132-.202 1.456-.688 1.895-.326.294-.546.393-.996.449-.319.039-3.65.053-7.404.03-7.559-.047-7.341-.028-8.883-.783A7.762 7.762 0 0 1 4.6 21.721c-.741-1.512-.734-1.437-.712-7.692.012-3.562.061-5.792.134-6.066.495-1.868 2.419-3.692 4.267-4.044.33-.063 9.612-.107 23.886-.113 19.893-.009 23.454.012 24.079.145M43.153 6.664c-.497.298-.905.987-.901 1.522.004.481.364 1.176.752 1.453 1.453 1.034 3.52-.251 3.038-1.889a2.14 2.14 0 0 0-.997-1.206c-.478-.249-1.37-.193-1.892.12m1.679.854c.054.033.155.199.225.368.386.93-.981 1.617-1.614.812-.655-.833.443-1.765 1.389-1.18m-18.816.762c-.584.19-.959.526-1.22 1.091-.276.598-.259.667.181.738.504.082.651.016.807-.362.268-.645 1.205-.869 1.772-.422.231.181.286.315.286.696 0 .562-.3.861-.979.975-.399.068-.43.099-.43.429 0 .345.016.358.546.428.714.095.971.351.971.97 0 1.18-1.556 1.52-2.254.492-.271-.4-.322-.427-.711-.381-.622.073-.682.194-.365.736.355.606.583.804 1.155 1.006.935.33 2.125.131 2.756-.461.895-.841.78-2.198-.232-2.736l-.354-.188.387-.228c.672-.397.871-1.206.483-1.966-.397-.778-1.726-1.166-2.799-.817m11.242-.013c-1.272.476-1.804 1.608-1.699 3.617.101 1.927.985 2.958 2.54 2.958.986 0 1.834-.615 2.201-1.595.691-1.848.159-4.17-1.104-4.822-.521-.269-1.441-.344-1.938-.158m-4.569.102c-.322.245-2.045 2.508-2.32 3.047-.502.982-.336 2.154.398 2.817 1.122 1.014 3.185.704 3.873-.583.213-.399.253-.608.22-1.152-.072-1.209-.891-1.85-2.238-1.753l-.643.047.829-.965c.456-.53.943-1.105 1.081-1.279l.252-.315h-.637c-.351 0-.718.061-.815.136m6.061.893c.414.29.63 1.076.624 2.275-.006 1.305-.249 1.987-.811 2.277-1.044.54-1.838-.466-1.838-2.331 0-1.582.444-2.383 1.322-2.383.259 0 .576.073.703.162M2.817 12.838v2.979h-1.3V9.858h1.3v2.98m60.125 0v2.979h-1.3V9.858h1.3v2.98M33.08 11.646c.443.21.624.51.632 1.05.01.748-.549 1.274-1.358 1.277-.331.002-.493-.074-.786-.366-.306-.307-.368-.448-.368-.843 0-.559.223-.921.691-1.125.444-.193.771-.192 1.189.007" /></svg>