<svg  viewBox="0 0 62 60"  xmlns="http://www.w3.org/2000/svg">
<path d="M61.8807 58.59C59.5329 54.72 55.3158 52.38 50.7847 52.47C49.6482 52.47 48.5267 52.62 47.435 52.89C44.6087 48.345 39.7186 45.465 34.38 45.21C34.4996 40.755 34.3501 35.94 32.5257 31.8C33.3033 28.095 35.2773 24.765 38.1485 22.32C39.3448 23.445 40.9449 24.075 42.5898 24.06H42.6646C45.8499 23.925 48.8556 22.59 51.0988 20.325C53.6111 17.58 55.0317 13.995 55.0766 10.26C55.0317 6.585 53.6559 3.06 51.2035 0.315L51.1735 0.285C51.1735 0.285 51.1287 0.24 51.0988 0.21C51.0838 0.195 51.0539 0.18 51.039 0.165C51.009 0.15 50.9791 0.12 50.9492 0.105C50.9343 0.105 50.9044 0.075 50.8894 0.075C50.8595 0.075 50.8296 0.045 50.7847 0.03L50.71 0C50.71 0 50.6352 0 50.6053 0C50.5903 0 50.5604 0 50.5455 0H50.5006C50.5006 0 50.4258 0 50.381 0H50.3511C50.3511 0 50.2464 0.03 50.1866 0.045H50.1716C50.1716 0.045 50.0669 0.09 50.0221 0.12C50.0221 0.12 49.9174 0.21 49.8725 0.255C48.5267 1.62 47.0462 2.835 45.461 3.885C44.7133 4.38 43.9208 4.86 43.1581 5.31C41.9169 6.03 40.7206 6.81 39.5542 7.665C37.4606 9.105 35.9053 11.22 35.1576 13.65C34.5595 16.245 35.1875 18.975 36.8474 21.06C34.3351 23.34 32.3911 26.205 31.2097 29.385C30.9854 29.055 30.7611 28.725 30.5069 28.41C29.9835 27.75 29.4152 27.135 28.7871 26.565C30.3573 23.115 30.1031 19.095 28.0993 15.855C26.1851 13.35 23.7326 11.295 20.9213 9.855C18.0052 8.055 15.2387 6.375 13.8928 3.54C13.8928 3.54 13.8928 3.54 13.8778 3.51C13.8479 3.435 13.8031 3.375 13.7432 3.315C13.7432 3.315 13.6236 3.195 13.5638 3.15L13.5339 3.12C13.5339 3.12 13.3993 3.06 13.3245 3.03H13.2797C13.2797 3.03 13.1301 3.015 13.0703 3.015H13.0105C12.9357 3.015 12.846 3.045 12.7862 3.075H12.7563C12.7563 3.075 12.6366 3.165 12.5768 3.195L12.5469 3.225C12.5469 3.225 12.4273 3.33 12.3824 3.405L12.3525 3.45C12.3525 3.45 12.2777 3.57 12.2628 3.645C12.2628 3.645 12.2628 3.66 12.2628 3.675C12.2628 3.69 12.2628 3.69 12.2628 3.705C11.9936 4.635 11.6646 5.55 11.2609 6.435C10.8272 7.395 10.4533 8.4 10.1842 9.42C9.78039 10.86 9.51122 12.33 9.37663 13.83C9.22709 18.33 11.2758 22.635 14.8499 25.365C17.3622 27.075 20.3679 27.9 23.4036 27.705C24.7196 27.705 26.0057 27.615 27.217 27.54C27.9198 28.14 28.5628 28.8 29.1311 29.535C32.4808 33.78 32.7351 39.78 32.5855 45.195C27.0973 45.345 22.0428 48.27 19.1866 52.98C17.093 51.855 14.7601 51.27 12.3974 51.285C7.20828 51.18 2.42294 54.06 0.0900905 58.71C-0.119268 59.16 0.0751363 59.7 0.523761 59.91C0.972387 60.12 1.51074 59.925 1.7201 59.475C3.75386 55.455 7.91112 52.965 12.3974 53.07C14.7601 53.07 17.0631 53.715 19.0669 54.975C19.4857 55.245 20.039 55.11 20.3081 54.69C20.3231 54.66 20.338 54.63 20.353 54.6C22.8952 49.8 27.9348 46.83 33.3482 46.95C38.6569 46.86 43.5918 49.695 46.2088 54.33C46.4032 54.72 46.8518 54.9 47.2705 54.765C48.407 54.405 49.6034 54.225 50.7997 54.225C54.6728 54.15 58.3067 56.13 60.3405 59.445C60.5947 59.865 61.148 60.015 61.5667 59.745C61.9854 59.49 62.12 58.965 61.8957 58.545M49.8576 19.035C47.9434 20.955 45.3863 22.095 42.6796 22.23H42.6198C41.4832 22.245 40.3916 21.84 39.5392 21.105C40.2869 20.505 41.0795 19.95 41.902 19.38C42.8291 18.735 43.7862 18.06 44.6834 17.31C48.8706 13.815 50.7847 8.235 51.2932 3.405C52.6091 5.43 53.312 7.8 53.312 10.215C53.2522 13.47 52.0259 16.605 49.8426 19.02M36.9222 14.07C37.5802 12.03 38.8962 10.275 40.6608 9.075C41.7674 8.265 42.9188 7.515 44.1002 6.84C44.8778 6.375 45.7003 5.88 46.4779 5.355C47.5397 4.65 48.5566 3.87 49.5286 3.03C49.0949 7.5 47.3602 12.72 43.532 15.915C42.6945 16.62 41.7674 17.265 40.8701 17.88C39.9729 18.495 39.0906 19.125 38.2232 19.83C36.9671 18.195 36.4885 16.095 36.9222 14.07ZM20.024 11.37C22.5961 12.675 24.8542 14.535 26.6487 16.83C28.2039 19.395 28.4881 22.545 27.3964 25.335C26.0954 24.33 24.7196 23.46 23.3438 22.605C21.1306 21.345 19.0819 19.8 17.2575 18.015C14.3564 14.85 12.9955 10.56 13.5488 6.285C15.3882 8.355 17.5865 10.08 20.024 11.385M15.9415 23.94C12.831 21.57 11.0515 17.85 11.1562 13.935C11.2609 12.72 11.4702 11.535 11.7992 10.365C12.2329 13.68 13.6834 16.785 15.9415 19.245C17.8706 21.15 20.039 22.785 22.3868 24.135C23.299 24.705 24.1962 25.275 25.0486 25.86C21.8335 26.01 18.379 25.83 15.9565 23.94" />
</svg>
