<svg viewBox="0 0 21 25" fill="none" xmlns="http://www.w3.org/2000/svg">
<path fill-rule="evenodd" clip-rule="evenodd" d="M0.03 19.2363L0 8.69606C0 8.30182 0.28 7.97715 0.62 7.97715C0.7 7.97715 0.79 8.00034 0.87 8.03512L9.17 12.1399C9.4 12.2559 9.55 12.511 9.55 12.8009L9.57 23.3411C9.57 23.7354 9.29 24.06 8.95 24.06C8.87 24.06 8.78 24.0368 8.7 24.002L0.41 19.8973C0.18 19.7813 0.03 19.5262 0.03 19.2363ZM19.05 9.19467L11.39 13.0328L11.41 22.7845L19.07 18.9464L19.05 9.19467ZM19.36 7.91917C19.7 7.91917 19.98 8.24384 19.99 8.63809L20.01 19.1783C20.01 19.4682 19.86 19.7233 19.63 19.8393L11.35 23.9905C11.03 24.1528 10.67 23.9905 10.53 23.6194C10.5 23.5266 10.48 23.4339 10.48 23.3295L10.46 12.7893C10.46 12.4994 10.61 12.2443 10.84 12.1283L19.12 7.97715C19.2 7.94236 19.28 7.91917 19.37 7.91917H19.36ZM9.94 1.9823L2 6.08709L9.96 10.1455L17.9 6.04071L9.94 1.9823ZM9.94 0.869141C10.03 0.869141 10.11 0.892332 10.19 0.927118L18.92 5.37977C19.23 5.5421 19.38 5.97114 19.24 6.33059C19.18 6.49293 19.06 6.63208 18.92 6.70165L10.21 11.2007C10.05 11.2818 9.86 11.2818 9.7 11.2007L0.98 6.74803C0.67 6.58569 0.52 6.15666 0.66 5.7972C0.72 5.63487 0.84 5.49572 0.98 5.42615L9.69 0.927118C9.77 0.892332 9.86 0.869141 9.94 0.869141Z" fill="#000"/>
</svg>
