<svg viewBox="0 0 26 26" xmlns="http://www.w3.org/2000/svg"><path d="M12.692.09c-.327.195-.299-.616-.299 8.616 0 4.554-.014 8.281-.032 8.281-.018 0-1.018-.986-2.221-2.191-1.204-1.206-2.241-2.22-2.305-2.254-.409-.217-.887.125-.845.604l.018.21 2.834 2.835c2.995 2.996 2.961 2.966 3.276 2.893.083-.019 1.013-.918 3.034-2.936 3.151-3.145 3.028-3.003 2.919-3.368-.09-.298-.476-.494-.763-.388-.077.029-1.056.974-2.415 2.332l-2.286 2.284V8.753c0-7.773-.005-8.263-.076-8.403a.6.6 0 0 0-.839-.26M.317 17.981c-.311.19-.295.035-.295 2.882 0 2.853-.006 2.789.308 3.43.376.768 1.075 1.345 1.945 1.606.247.073.791.078 10.53.09 7.004.009 10.364-.001 10.566-.032 1.131-.174 2.068-.938 2.434-1.985.18-.517.194-.745.195-3.206 0-2.538.002-2.52-.231-2.735-.164-.15-.494-.175-.693-.052-.296.182-.289.121-.289 2.75 0 1.585-.016 2.439-.049 2.593-.145.682-.737 1.275-1.416 1.417-.329.068-20.32.068-20.644-.001-.682-.145-1.275-.737-1.417-1.416-.031-.152-.048-1.03-.048-2.593 0-2.081-.008-2.382-.069-2.511-.141-.296-.542-.411-.827-.237" /></svg>