<svg viewBox="0 0 40 60" xmlns="http://www.w3.org/2000/svg">
<path d="M9.41271 0.000403998C6.52984 0.195598 3.97731 1.87727 2.64098 4.4298C0.854206 7.49285 -0.0466886 10.9913 0.0133711 14.5499C-0.106748 17.3276 0.583938 20.0904 2.02537 22.4627C3.10644 24.0243 4.68301 25.1804 6.51483 25.7059L5.64396 56.2463C5.64396 58.3183 7.32563 60 9.39769 60C11.4698 60 13.1514 58.3183 13.1514 56.2463L12.2806 25.7059C14.0974 25.1654 15.6889 24.0243 16.755 22.4627C18.1964 20.0753 18.9021 17.3276 18.767 14.5348C18.8421 10.9913 17.9262 7.49285 16.1544 4.4298C14.8481 1.87727 12.2806 0.195598 9.41271 0.000403998ZM9.41271 1.87727C11.6349 2.07246 13.6019 3.40879 14.5778 5.42079C16.1694 8.19855 16.9802 11.3517 16.9051 14.5499C17.0253 16.9522 16.4397 19.3546 15.2085 21.4267C14.2926 22.8381 12.8361 23.8441 11.1845 24.1894C10.9743 24.2195 10.7791 24.3246 10.6439 24.4747C10.6289 24.5047 10.5989 24.5198 10.5839 24.5498L10.5538 24.5798L10.5238 24.6249C10.4037 24.8201 10.3586 25.0603 10.4037 25.2855L11.2896 56.2913C11.2896 57.3273 10.4487 58.1682 9.41271 58.1682C8.37668 58.1682 7.53584 57.3273 7.53584 56.2913L8.42172 25.1354C8.42172 24.6849 8.12143 24.2945 7.68599 24.1894C6.00432 23.8441 4.53286 22.8531 3.60194 21.4117C2.37071 19.3396 1.78513 16.9372 1.90525 14.5348C1.84519 11.3367 2.64098 8.18353 4.23256 5.40577C5.22355 3.40879 7.17549 2.05745 9.41271 1.86225 M26.3195 0.000403999C25.809 -0.0146109 25.3736 0.390792 25.3435 0.901299L24.4126 19.6549C24.3525 22.4027 26.3645 24.76 29.0822 25.1354L28.1663 56.2463C28.1663 58.3183 29.848 60 31.9201 60C33.9921 60 35.6738 58.3183 35.6738 56.2463L34.7579 25.1354C37.4756 24.76 39.4876 22.4027 39.4275 19.6549L38.4816 0.901299C38.4516 0.390792 38.0161 -0.0146109 37.4906 0.0154189C36.9951 0.0454487 36.6197 0.435836 36.6047 0.931329V1.0064L37.5356 19.76C37.5657 21.787 35.9441 23.4387 33.9321 23.4687C33.887 23.4687 33.842 23.4687 33.7819 23.4687C33.2564 23.4687 32.851 23.8891 32.851 24.3996V24.4297L33.7819 56.3213C33.7819 57.3574 32.9411 58.1982 31.905 58.1982C30.869 58.1982 30.0282 57.3574 30.0282 56.3213L30.9591 24.4297C30.9741 23.9192 30.5687 23.4837 30.0432 23.4687H30.0132C28.0012 23.5288 26.3195 21.9222 26.2594 19.9102C26.2594 19.8651 26.2594 19.8201 26.2594 19.76L27.2054 1.0064C27.2354 0.495896 26.845 0.0454487 26.3345 0.0154189H26.3045 M33.7819 0.000403998C33.2714 0.000403998 32.851 0.435836 32.866 0.946343V20.6309C32.836 21.1414 33.2414 21.5918 33.7519 21.6219C34.2624 21.6519 34.7128 21.2465 34.7429 20.736C34.7429 20.706 34.7429 20.691 34.7429 20.6609V0.946343C34.7429 0.435836 34.3375 0.000403998 33.8119 0.000403998H33.7819Z M30.0282 0.000403998C29.5177 0.000403998 29.0973 0.435836 29.1123 0.946343V20.6309C29.0822 21.1414 29.4876 21.5918 29.9982 21.6219C30.5087 21.6519 30.9591 21.2465 30.9891 20.736C30.9891 20.706 30.9891 20.691 30.9891 20.6609V0.946343C30.9891 0.435836 30.5837 0.000403998 30.0582 0.000403998H30.0282Z"/>
</svg>
