<svg viewBox="0 0 23 25"  xmlns="http://www.w3.org/2000/svg">
<path d="M19.4 24.35V10.58H19.86C20.97 10.58 21.87 9.68 21.87 8.57V0H22.8V8.57C22.8 10.01 21.75 11.24 20.32 11.47V24.35H19.4ZM14.64 24.35C11.53 24.35 9.02 21.82 9.01 18.71V15.33H9.47C12.51 15.33 14.98 12.86 14.98 9.82V0.92H0.92V9.82C0.92 12.86 3.39 15.33 6.43 15.33H6.89V18.71C6.89 21.82 4.37 24.34 1.26 24.35H0V23.43H1.26C3.86 23.43 5.97 21.32 5.97 18.72V16.25C2.61 16 0 13.2 0 9.83V0.0100002H15.91V9.83C15.91 13.2 13.3 16 9.94 16.25V18.72C9.94 21.32 12.05 23.43 14.65 23.43H15.91V24.35H14.64ZM19.58 6.93V0.0100002H20.5V6.93H19.58ZM17.28 6.93V0.0100002H18.2V6.93H17.28Z"/>
</svg>
