<svg viewBox="0 0 54 62" xmlns="http://www.w3.org/2000/svg"><path d="M30.735.452c-.965.17-2.384.765-3.285 1.377-.603.41-1.587 1.381-2.043 2.019l-.404.563-.408-.454c-.851-.947-2.225-1.776-3.535-2.133-.907-.247-2.877-.221-3.825.05-1.143.327-2.348 1.067-3.236 1.987l-.356.369h-1.041c-3.272 0-5.85.907-7.663 2.697-2.035 2.01-3.113 5.172-3.291 9.66l-.057 1.421.712-.026.712-.027.019-.72c.131-4.93 1.282-8.176 3.482-9.819 1.493-1.115 3.038-1.606 5.603-1.78l.644-.044-.209.512c-.253.623-.494 1.751-.494 2.311v.413l.698-.027.697-.026.058-.645c.154-1.729 1.216-3.371 2.799-4.329 1.746-1.056 4.155-1.047 5.917.023.706.429 1.345 1.016 1.735 1.595l.322.476-.211.819c-.116.45-.24 1.108-.275 1.462l-.063.644H25.174l.06-.723c.122-1.463.771-2.903 1.816-4.032 1.401-1.514 2.901-2.219 4.945-2.326 2.301-.12 3.917.484 5.445 2.035.885.899 1.265 1.496 1.639 2.584.321.928.44 2.506.256 3.386-.245 1.172-1.107 2.361-2.184 3.011-.973.588-.509.565-11.632.566-10.427.001-11.918.041-13.439.366-2.871.614-5.029 2.232-5.218 3.913l-.046.408.706-.026.706-.027.058-.283c.23-1.129 1.881-2.142 4.404-2.703.603-.134 1.888-.155 12.015-.202l11.34-.052.738-.258c2.617-.915 4.215-3.369 4.05-6.22-.151-2.593-1.302-4.774-3.331-6.313-.65-.492-1.928-1.112-2.762-1.34-.668-.182-3.241-.267-4.005-.132M44.587 8.19c-.918.08-2.017.346-2.017.487 0 .101.359 1.224.391 1.222.008-.001.399-.081.869-.179 1.384-.288 2.857-.219 4.089.191 1.685.56 3.375 2.17 4.072 3.879.64 1.569.628 3.659-.028 4.954-.461.912-1.591 1.86-2.688 2.258-.186.067-3.751.114-11.43.151-9.851.047-11.255.071-11.973.202-1.903.35-3.563 1.022-4.605 1.865-.79.638-1.363 1.607-1.373 2.317l-.004.293h.673c.662 0 .675-.004.728-.248.17-.778.759-1.362 1.98-1.963.909-.447 2.102-.78 3.324-.93.546-.066 4.235-.099 11.31-.099 11.78 0 11.317.023 12.675-.641.618-.302.912-.523 1.531-1.149 1.138-1.152 1.631-2.231 1.755-3.841.143-1.865-.481-3.993-1.61-5.496-1.079-1.434-2.731-2.567-4.421-3.03-.529-.145-1.984-.343-2.34-.319-.099.006-.507.041-.908.076m-28.319 9.068a18.022 18.022 0 0 0-1.412 4.472c-.157.873-.288 2.932-.224 3.537.066.632.063.63.97.506l.418-.057v-.879c0-2.508.583-5.128 1.586-7.127.167-.333.304-.637.304-.675-.001-.064-1.067-.655-1.182-.655-.028 0-.235.395-.46.878m-15.7 2.703c-.059.037-.15.181-.202.319-.137.36-.135 40.602.002 40.995.075.213.177.303.428.373.473.131 52.266.127 52.644-.005a.574.574 0 0 0 .373-.373c.134-.384.135-14.538.001-14.89-.052-.138-.143-.282-.202-.319-.059-.038-3.114-.069-6.79-.07l-6.682-.001v1.35h12.33V60.3H38.25V48.246c0-8.292-.03-12.133-.096-12.306-.052-.138-.143-.282-.202-.319-.059-.038-6.476-.069-14.26-.07L9.54 35.55V27.9c0-7.53-.003-7.653-.18-7.83-.175-.175-.299-.18-4.432-.179-2.339.001-4.301.032-4.36.07M8.1 40.77V60.3H1.71V21.24H8.1v19.53m5.436-12.861c-.16.178-.171.362-.171 2.948v2.758l.698.026.697.027V29.07H21.147l.024 2.272.024 2.273.697.026.698.027v-2.777c0-2.67-.007-2.785-.184-2.974l-.183-.197h-4.258c-4.213 0-4.259.002-4.429.189M36.81 48.6v11.7H9.54V36.9h27.27v11.7m-22.14 5.22v3.24h1.44v-6.48h-1.44v3.24m5.22 0v3.24h1.35v-6.48h-1.35v3.24m5.22 0v3.24h1.44v-6.48h-1.44v3.24m5.22 0v3.24h1.35v-6.48h-1.35v3.24m11.7 0v3.24h1.44v-6.48h-1.44v3.24m5.22 0v3.24h1.44v-6.48h-1.44v3.24" /></svg>