<svg viewBox="0 0 20 20" xmlns="http://www.w3.org/2000/svg">
<path d="M14.59 0H5.41C2.42 0 0 2.43 0 5.41V14.58C0 17.57 2.43 19.99 5.41 19.99H14.58C17.57 19.99 19.99 17.56 19.99 14.58V5.41C19.99 2.42 17.56 0 14.58 0H14.59ZM10 15.47C6.98 15.47 4.53 13.02 4.53 10C4.53 6.98 6.98 4.53 10 4.53C13.02 4.53 15.47 6.98 15.47 10C15.47 13.02 13.02 15.47 10 15.47ZM15.6 5.82001C14.71 5.82001 13.98 5.1 13.98 4.2C13.98 3.31 14.7 2.58 15.6 2.58C16.5 2.58 17.22 3.3 17.22 4.2C17.22 5.09 16.5 5.81001 15.6 5.82001Z M10.0001 5.7002C7.63007 5.7002 5.70007 7.6302 5.70007 10.0002C5.70007 12.3702 7.63007 14.3002 10.0001 14.3002C12.3701 14.3002 14.3001 12.3702 14.3001 10.0002C14.3001 7.6302 12.3701 5.7002 10.0001 5.7002Z M15.6 3.75977C15.36 3.75977 15.16 3.95977 15.16 4.19977C15.16 4.43977 15.36 4.63977 15.6 4.63977C15.84 4.63977 16.04 4.43977 16.04 4.19977C16.04 3.95977 15.84 3.75977 15.6 3.75977Z" />
</svg>
