<svg viewBox="0 0 22 22" xmlns="http://www.w3.org/2000/svg">
<path d="M11 22C17.08 22 22 17.08 22 11C22 4.92 17.08 0 11 0C4.92 0 0 4.92 0 11C0 17.07 4.93 22 11 22ZM2.48 15.38L6.95 15.35C7.46 17.18 8.3 18.91 9.42 20.44C6.44 19.94 3.87 18.07 2.48 15.38ZM8.09 7.98H13.66C14.06 9.93 14.07 11.94 13.69 13.89L8.08 13.92C7.67 11.96 7.67 9.94 8.08 7.98H8.09ZM10.87 20.02C9.77 18.62 8.95 17.04 8.44 15.34L13.32 15.31C12.79 17.02 11.96 18.62 10.87 20.03V20.02ZM12.29 20.48C13.44 18.92 14.29 17.15 14.79 15.28L19.56 15.25C18.15 18.09 15.43 20.05 12.29 20.49V20.48ZM20.58 10.99C20.58 11.95 20.43 12.91 20.15 13.83L15.13 13.86C15.48 11.91 15.47 9.91 15.1 7.97H20.09C20.42 8.94 20.59 9.96 20.59 10.99H20.58ZM19.48 6.56H14.76C14.24 4.74 13.41 3.03 12.3 1.5C15.37 1.92 18.05 3.8 19.48 6.56ZM13.29 6.56H8.46C8.98 4.9 9.8 3.34 10.87 1.96C11.94 3.34 12.76 4.9 13.28 6.56H13.29ZM9.42 1.57C8.32 3.08 7.5 4.77 6.99 6.57H2.52C3.91 3.91 6.46 2.05 9.42 1.56V1.57ZM6.65 7.99C6.28 9.95 6.27 11.97 6.63 13.93L1.89 13.97C1.57 13.02 1.41 12.01 1.41 11.01C1.41 9.98 1.58 8.97 1.91 7.99H6.65Z" />
</svg>
