<svg viewBox="0 0 41 48" xmlns="http://www.w3.org/2000/svg">
<path d="M20.5 48C20.1559 48.0015 19.8148 47.9361 19.4963 47.8074C19.1778 47.6786 18.888 47.4891 18.6437 47.2497L6.16177 34.9155C4.191 32.9787 2.631 30.673 1.57307 28.1332C0.515133 25.5934 -0.0194726 22.8706 0.000541877 20.1241C-0.00794675 17.465 0.520519 14.8309 1.555 12.3761C2.58947 9.9213 4.10917 7.69512 6.0251 5.8279C9.89466 2.09174 15.09 0 20.5 0C25.91 0 31.1053 2.09174 34.9749 5.8279C36.8908 7.69512 38.4105 9.9213 39.445 12.3761C40.4795 14.8309 41.0079 17.465 40.9995 20.1241C41.0195 22.8706 40.4849 25.5934 39.4269 28.1332C38.369 30.673 36.809 32.9787 34.8382 34.9155L22.3563 47.2272C22.1138 47.4707 21.825 47.6643 21.5063 47.797C21.1877 47.9296 20.8457 47.9986 20.5 48ZM20.5 2.23416C15.6829 2.22319 11.0559 4.09013 7.6233 7.4297C5.92275 9.08879 4.57413 11.0664 3.65635 13.2467C2.73857 15.4271 2.27007 17.7664 2.27826 20.1278C2.26003 22.5774 2.73647 25.006 3.67968 27.2714C4.62288 29.5368 6.01392 31.5935 7.77135 33.3212L20.2494 45.6329C20.2817 45.6659 20.3203 45.6922 20.363 45.7101C20.4057 45.7281 20.4517 45.7373 20.4981 45.7373C20.5445 45.7373 20.5905 45.7281 20.6332 45.7101C20.6759 45.6922 20.7145 45.6659 20.7468 45.6329L33.2286 33.3212C34.9861 31.5935 36.3771 29.5368 37.3203 27.2714C38.2635 25.006 38.74 22.5774 38.7217 20.1278C38.7299 17.7664 38.2614 15.4271 37.3436 13.2467C36.4259 11.0664 35.0772 9.08879 33.3767 7.4297C29.9441 4.09013 25.3171 2.22319 20.5 2.23416Z M20.5 30.5227C18.1074 30.5216 15.7891 29.7009 13.94 28.2005C12.0909 26.7 10.8253 24.6126 10.3588 22.2936C9.89224 19.9746 10.2536 17.5676 11.3813 15.4823C12.5091 13.3971 14.3334 11.7626 16.5437 10.8572C18.754 9.95189 21.2136 9.83166 23.5035 10.517C25.7934 11.2024 27.7721 12.651 29.1026 14.616C30.4331 16.5811 31.0331 18.9412 30.8005 21.2943C30.5678 23.6475 29.5169 25.8482 27.8267 27.5217C26.8655 28.4739 25.7235 29.2292 24.4662 29.7442C23.2089 30.2592 21.8611 30.5237 20.5 30.5227ZM20.5 12.3327C18.6332 12.3356 16.8252 12.9779 15.3838 14.1503C13.9425 15.3226 12.957 16.9525 12.5952 18.7622C12.2334 20.572 12.5176 22.4497 13.3996 24.0756C14.2815 25.7015 15.7065 26.975 17.432 27.6792C19.1574 28.3834 21.0765 28.4748 22.8625 27.9377C24.6484 27.4007 26.1907 26.2684 27.2267 24.7338C28.2627 23.1992 28.7283 21.3572 28.5442 19.5214C28.3601 17.6857 27.5377 15.9698 26.2171 14.666C25.4664 13.9245 24.5749 13.3367 23.5939 12.9363C22.6128 12.5359 21.5615 12.3308 20.5 12.3327Z"/>
</svg>
