<svg viewBox="0 0 60 60"  xmlns="http://www.w3.org/2000/svg">
<path d="M8.7254 53.3245C8.17035 53.3545 7.63031 53.1445 7.24028 52.7544C6.38521 51.8994 5.95018 50.0992 10.1205 43.6637C11.9807 40.7685 14.0658 38.0383 16.346 35.4731L47.5184 4.30061C49.1536 2.8605 51.0287 1.72041 53.0389 0.925347C55.079 0.100282 57.7943 -0.604774 59.1894 0.805337C61.6646 3.28053 57.6442 10.5261 55.6941 12.4763L24.5216 43.6487C21.9564 45.9289 19.2262 48.0141 16.331 49.8742C12.2357 52.5294 10.0155 53.3245 8.7254 53.3245ZM56.9092 1.6454C55.7841 1.70541 54.689 1.99043 53.6689 2.45547C51.8538 3.17552 50.1737 4.1956 48.6885 5.4707L17.5161 36.6432C15.3109 39.1184 13.3158 41.7736 11.5156 44.5638C8.27536 49.5742 8.18535 51.3443 8.41037 51.5843C8.63539 51.8244 10.4205 51.7344 15.4309 48.4941C18.2211 46.694 20.8614 44.6988 23.3515 42.4936L54.524 11.3062C55.7991 9.82105 56.8192 8.14091 57.5392 6.32577C58.5743 3.79057 58.4693 2.41046 58.0343 1.97543C57.7192 1.72041 57.3142 1.6154 56.9092 1.6454Z M46.8734 58.2449C46.5734 58.2449 46.2884 58.0798 46.1383 57.8098L38.2177 42.9287L31.1372 35.8481C30.8071 35.5181 30.8071 35.008 31.1372 34.678C31.4672 34.348 31.9772 34.348 32.3073 34.678L39.4628 41.8336C39.4628 41.8336 39.5678 41.9536 39.6128 42.0286L47.3534 56.5647L49.4086 56.5347L42.7481 23.5621C42.6581 23.1121 42.9431 22.6771 43.3931 22.5871C43.8432 22.497 44.2782 22.7821 44.3682 23.2321L51.2237 57.1648C51.3138 57.6148 51.0287 58.0498 50.5787 58.1399C50.5337 58.1399 50.4737 58.1549 50.4287 58.1549L46.8734 58.2149V58.2449Z M24.7317 29.0976C24.5066 29.0976 24.2966 29.0076 24.1466 28.8575L17.0661 21.777L2.18488 13.8564C1.89986 13.7064 1.73485 13.4213 1.74985 13.1063L1.80985 9.55103C1.80985 9.10099 2.19988 8.72596 2.64992 8.74096C2.69492 8.74096 2.75493 8.74096 2.79993 8.75596L36.7326 15.6115C37.1826 15.7015 37.4677 16.1365 37.3777 16.5866C37.2876 17.0366 36.8526 17.3216 36.4026 17.2316L3.44498 10.5711L3.41498 12.6263L17.9511 20.3669C17.9511 20.3669 18.0861 20.4569 18.1461 20.5169L25.3017 27.6875C25.6317 28.0025 25.6317 28.5275 25.3017 28.8575C25.1517 29.0076 24.9417 29.0976 24.7167 29.0976 M20.0813 60C19.7963 60 19.5262 59.85 19.3762 59.595L13.8708 50.4292C13.6308 50.0392 13.7658 49.5292 14.1558 49.2892C14.5459 49.0491 15.0559 49.1841 15.2959 49.5742L20.4263 58.1099L22.5715 57.1348L21.0414 45.2688C20.9814 44.8188 21.2964 44.3988 21.7614 44.3388C22.2115 44.2788 22.6315 44.5938 22.6915 45.0588L24.3116 57.5398C24.3566 57.8998 24.1616 58.2449 23.8316 58.3949L20.4563 59.925C20.3513 59.97 20.2313 60 20.1113 60 M10.0005 46.2439C9.85048 46.2439 9.70047 46.1989 9.58046 46.1239L0.39974 40.6185C0.0397119 40.4085 -0.0952988 39.9434 0.0697142 39.5684L1.59983 36.2081C1.74985 35.8781 2.09487 35.6831 2.4549 35.7281L14.9359 37.3482C15.3859 37.4082 15.7009 37.8283 15.6559 38.2783C15.6109 38.7283 15.1759 39.0433 14.7259 38.9983L2.85993 37.4532L1.88486 39.5984L10.4205 44.7138C10.8106 44.9538 10.9456 45.4489 10.7056 45.8389C10.5555 46.0939 10.2855 46.2439 9.98549 46.2439"/>
</svg>
