<svg viewBox="0 0 79 62" xmlns="http://www.w3.org/2000/svg"><path d="M28.428 1.152c-.076.199-2.301 5.754-4.946 12.344-2.644 6.59-4.817 12.034-4.829 12.099-.012.065.302.25.697.413l.72.295 4.974-12.394c2.735-6.817 4.974-12.441 4.975-12.498.001-.105-1.103-.621-1.33-.621-.068 0-.186.163-.261.362m20.815-.102c-.326.135-.577.309-.559.387.018.078 2.258 5.705 4.977 12.504l4.945 12.362.717-.281c.394-.155.717-.326.717-.38C60.041 25.33 50.112.791 49.987.797c-.083.004-.418.118-.744.253M2.525 20.681C.719 21.583.133 22.886.133 26.004c0 2.621.344 3.723 1.479 4.744.738.664 1.521.961 2.822 1.072.817.069.954.118 1.014.358.038.153 1.316 5.89 2.839 12.748 1.524 6.859 2.851 12.704 2.95 12.99.701 2.035 2.603 3.543 4.834 3.832 1.319.171 45.272.171 46.602 0 2.22-.285 4.219-1.894 4.814-3.875.11-.365 1.444-6.263 2.964-13.106 1.521-6.844 2.794-12.539 2.83-12.657.049-.162.311-.235 1.09-.303 1.746-.152 3.023-.981 3.732-2.42.289-.586.304-.76.304-3.383s-.015-2.796-.304-3.383c-.366-.743-1.197-1.602-1.927-1.993-.524-.28-.653-.286-7.018-.323l-6.485-.038v1.59h6.114c4 0 6.242.048 6.485.14.527.199 1.088.761 1.372 1.374.205.443.244.86.244 2.633 0 2.39-.122 2.848-.951 3.576-.734.644-1.297.703-6.687.703h-4.865v1.58h3.621c1.991 0 3.621.045 3.621.099.001.498-5.621 25.269-5.85 25.78-.402.891-.967 1.508-1.811 1.976l-.7.388H15.471l-.566-.302c-.854-.456-1.561-1.159-1.929-1.915-.229-.473-1.172-4.481-3.098-13.176C8.356 37.84 7.11 32.138 7.11 32.042c0-.14.713-.181 3.588-.209l3.588-.036.039-.757.04-.757h-4.86c-2.706 0-5.17-.058-5.558-.132-.839-.159-1.487-.623-1.842-1.318-.232-.456-.262-.778-.262-2.83 0-2.404.065-2.747.641-3.403.594-.675.569-.673 7.259-.743l6.254-.066.04-.757.039-.757H3.334l-.809.404m23.44.353.039.757 13.331.033 13.332.034v-1.581H25.925l.04.757m-4.108 23.338v8.295h1.58v-16.59h-1.58v8.295m8.295 0v8.295H31.863v-16.59H30.152v8.295m8.426 0v8.295h1.58v-16.59h-1.58v8.295m8.295 0v8.295h1.58v-16.59h-1.58v8.295m8.295 0v8.295h1.712v-16.59h-1.712v8.295"/></svg>