<svg viewBox="0 0 25 24" fill="none" xmlns="http://www.w3.org/2000/svg">
<path fill-rule="evenodd" clip-rule="evenodd" d="M8.74002 9.97397V11.1103H7.82001V9.97397H5.84C5.13 9.97397 4.55002 10.6465 4.55002 11.4698V16.479C4.55002 17.3023 5.13 17.9748 5.84 17.9864H10.7C11.41 17.9864 11.99 17.3139 11.99 16.4906V11.4814C11.99 10.6581 11.41 9.98556 10.7 9.97397H8.73001H8.74002ZM7.10001 11.9452L8.01001 13.2091H7.36002V14.8441H6.85001V13.2091H6.19L7.10001 11.9452ZM6.45001 15.8529H10.09V16.3863H6.45001V15.8529ZM9.69 13.2091V14.8441H9.18002V13.2091H8.52002L9.43002 11.9452L10.34 13.2091H9.68002H9.69ZM17.17 9.97397V11.1103H16.25V9.98556H14.27C13.56 9.98556 12.98 10.6581 12.98 11.4814V16.4906C12.98 17.3139 13.56 17.9864 14.27 17.998H19.13C19.84 17.998 20.42 17.3255 20.42 16.5022V11.493C20.42 10.6697 19.84 9.99716 19.13 9.98556H17.16L17.17 9.97397ZM15.53 11.9452L16.44 13.2091H15.78V14.8441H15.27V13.2091H14.61L15.52 11.9452H15.53ZM14.88 15.8529H18.52V16.3863H14.88V15.8529ZM18.12 13.2091V14.8441H17.61V13.2091H16.95L17.86 11.9452L18.77 13.2091H18.11H18.12ZM12.73 0.546875V1.68323H11.81V0.546875H9.83002C9.12002 0.546875 8.54001 1.21941 8.54001 2.04269V7.05192C8.54001 7.8752 9.12002 8.54773 9.83002 8.54773H14.69C15.4 8.54773 15.98 7.8752 15.98 7.05192V2.04269C15.98 1.21941 15.4 0.546875 14.69 0.546875H12.72H12.73ZM11.1 2.5181L12.01 3.782H11.35V5.41696H10.84V3.782H10.18L11.09 2.5181H11.1ZM10.45 6.42576H14.09V6.95915H10.45V6.42576ZM13.7 3.77041V5.40537H13.19V3.77041H12.53L13.44 2.50651L14.35 3.77041H13.7ZM24.44 18.9604H0.400024C0.180024 18.9604 0 19.1692 0 19.4243V23.2623C0 23.5174 0.180024 23.7262 0.400024 23.7262H24.44C24.66 23.7262 24.84 23.5174 24.84 23.2623V19.4243C24.84 19.1692 24.66 18.9604 24.44 18.9604ZM11.3 22.4854C11.3 22.7521 11.11 22.9725 10.88 22.9725H4.30002C4.07002 22.9725 3.88 22.7521 3.88 22.4854V20.2128C3.88 19.9461 4.07002 19.7257 4.30002 19.7257H10.88C11.11 19.7257 11.3 19.9461 11.3 20.2128V22.4854ZM20.96 22.497C20.96 22.7637 20.78 22.9725 20.55 22.9725H13.95C13.72 22.9725 13.54 22.7637 13.54 22.497V20.2011C13.54 19.9345 13.72 19.7257 13.95 19.7257H20.55C20.78 19.7257 20.96 19.9345 20.96 20.2011V22.497Z" fill="#000"/>
</svg>
