<svg viewBox="0 0 49 60" xmlns="http://www.w3.org/2000/svg">
<path d="M43.5484 60H4.83871C2.17065 60 0 57.8294 0 55.1613V4.83871C0 2.17065 2.17065 0 4.83871 0H24.526C25.8184 0 27.0339 0.50371 27.9469 1.41726L46.9698 20.4402C47.8839 21.3542 48.3871 22.5687 48.3871 23.8611V55.1613C48.3871 57.8294 46.2164 60 43.5484 60ZM4.83871 1.93548C3.23758 1.93548 1.93548 3.23758 1.93548 4.83871V55.1613C1.93548 56.7624 3.23758 58.0645 4.83871 58.0645H43.5484C45.1495 58.0645 46.4516 56.7624 46.4516 55.1613V23.8611C46.4516 23.0971 46.1414 22.349 45.6014 21.8085L26.5785 2.78565C26.0303 2.23742 25.3011 1.93548 24.526 1.93548H4.83871Z M39.295 37.8969C39.2612 37.6501 39.0628 37.3404 38.8499 37.1324C38.2402 36.5324 36.8999 36.2179 34.8579 36.1888C33.4741 36.1743 31.8096 36.2953 30.0579 36.5421C29.2741 36.0921 28.466 35.5985 27.8321 35.0034C26.1241 33.4114 24.7015 31.2001 23.8112 28.7663C23.8692 28.5388 23.9176 28.3404 23.966 28.1372C23.966 28.1372 24.9241 22.6792 24.6725 20.8308C24.6386 20.5792 24.6144 20.5066 24.5467 20.3082L24.4644 20.0953C24.2031 19.4904 23.6902 18.8517 22.887 18.8856L22.4128 18.8711H22.4031C21.5031 18.8711 20.7773 19.3308 20.5838 20.013C20.0031 22.1614 20.6031 25.3792 21.6918 29.5404L21.4112 30.2179C20.6321 32.1243 19.6547 34.0404 18.7934 35.7292L18.6821 35.9469C17.7725 37.7227 16.9499 39.2324 16.1999 40.5098L15.4305 40.9163C15.3725 40.9453 14.0515 41.6469 13.7418 41.8308C11.1144 43.4034 9.37246 45.184 9.08214 46.5969C8.9902 47.0517 9.05794 47.6275 9.5273 47.8937L10.2725 48.2711C10.5967 48.4308 10.9402 48.513 11.2886 48.513C13.1612 48.513 15.3338 46.1808 18.3289 40.955C21.7838 39.8324 25.7225 38.8937 29.1725 38.3808C31.7999 39.8566 35.0321 40.8872 37.0741 40.8872C37.437 40.8872 37.7515 40.8534 38.0031 40.7856C38.395 40.6792 38.7241 40.4566 38.9273 40.1566C39.3241 39.5614 39.4015 38.7388 39.295 37.8969ZM10.8821 47.0953C11.2208 46.1614 12.5757 44.313 14.5741 42.6775C14.6999 42.5759 15.0096 42.2856 15.2902 42.0146C13.1999 45.3485 11.8015 46.6743 10.8821 47.0953ZM22.7176 19.8388C23.3176 19.8388 23.6612 21.3534 23.6902 22.7759C23.7192 24.1985 23.3854 25.1953 22.9741 25.9356C22.6305 24.8421 22.466 23.1195 22.466 21.9921C22.466 21.9921 22.4418 19.8388 22.7176 19.8388ZM19.1854 39.2614C19.6063 38.5114 20.0418 37.7179 20.487 36.8808C21.5757 34.8243 22.2628 33.2179 22.7708 31.8969C23.787 33.7453 25.0547 35.3179 26.5402 36.5759C26.7289 36.7308 26.9273 36.8904 27.1305 37.0501C24.1063 37.6453 21.4886 38.3759 19.1854 39.2614ZM38.2644 39.0921C38.0805 39.2034 37.5531 39.2711 37.2144 39.2711C36.1208 39.2711 34.7612 38.7727 32.8596 37.955C33.5902 37.9017 34.2628 37.8727 34.8628 37.8727C35.9612 37.8727 36.2854 37.8679 37.3644 38.1437C38.4386 38.4195 38.4531 38.9759 38.2644 39.0921Z" />
</svg>
