<svg  viewBox="0 0 24 24" xmlns="http://www.w3.org/2000/svg">
<path d="M23.4403 22.2001L17.0803 15.8401C20.4903 11.7401 19.9403 5.65005 15.8403 2.24005C11.7403 -1.17995 5.6503 -0.619946 2.2403 3.48005C-1.1797 7.58005 -0.619701 13.6701 3.4803 17.0801C7.0603 20.0601 12.2603 20.0601 15.8403 17.0801L22.2003 23.4401C22.5503 23.7801 23.1003 23.7601 23.4403 23.4101C23.7703 23.0701 23.7703 22.5301 23.4403 22.2001ZM1.7803 9.67005C1.7803 5.32005 5.3203 1.78005 9.6703 1.78005C14.0203 1.78005 17.5603 5.31005 17.5603 9.67005C17.5603 14.0301 14.0303 17.5601 9.6703 17.5601C5.3103 17.5601 1.7903 14.0301 1.7803 9.67005Z" />
</svg>
