<svg viewBox="0 0 26 26" xmlns="http://www.w3.org/2000/svg">
<path d="M11.7541 15.4917L10.5083 14.2459L24.4833 0.325053L25.6749 1.51671L11.7541 15.4917Z M26 9.2625H24.1583V1.84166H16.7374V0H26V9.2625Z M21.3417 26H2.7625C1.24584 26 0 24.7542 0 23.2375V4.65834C0 3.14167 1.24584 1.89583 2.7625 1.89583H13V3.7375H2.7625C2.275 3.7375 1.84166 4.17084 1.84166 4.65834V23.2375C1.84166 23.725 2.275 24.1583 2.7625 24.1583H21.3417C21.8292 24.1583 22.2625 23.725 22.2625 23.2375V13H24.1042V23.2375C24.1583 24.7542 22.9125 26 21.3417 26Z"/>
</svg>
