<svg viewBox="0 0 16 18" xmlns="http://www.w3.org/2000/svg">
<path d="M10.3896 17.9991H4.84965C2.93965 17.9991 1.38965 16.4491 1.38965 14.5391V6.22906C1.38965 5.84906 1.69965 5.53906 2.07965 5.53906C2.45965 5.53906 2.76965 5.84906 2.76965 6.22906V14.5391C2.76965 15.6891 3.69965 16.6191 4.84965 16.6191H10.3896C11.5396 16.6191 12.4696 15.6891 12.4696 14.5391V6.22906C12.4696 5.84906 12.7796 5.53906 13.1596 5.53906C13.5396 5.53906 13.8496 5.84906 13.8496 6.22906V14.5391C13.8496 16.4491 12.2996 17.9991 10.3896 17.9991Z M14.54 4.14953H0.69C0.31 4.14953 0 3.83953 0 3.45953C0 3.07953 0.31 2.76953 0.69 2.76953H14.54C14.92 2.76953 15.23 3.07953 15.23 3.45953C15.23 3.83953 14.92 4.14953 14.54 4.14953Z M10.3902 4.15H4.85024C4.47024 4.15 4.16024 3.84 4.16024 3.46V2.07C4.15024 0.93 5.08024 0 6.23024 0H9.00024C10.1502 0 11.0802 0.93 11.0802 2.08V3.47C11.0802 3.85 10.7702 4.16 10.3902 4.16V4.15ZM5.54024 2.77H9.69024V2.08C9.69024 1.7 9.38024 1.39 9.00024 1.39H6.23024C5.85024 1.39 5.54024 1.7 5.54024 2.08V2.77Z M6.23004 13.8511C5.85004 13.8511 5.54004 13.5411 5.54004 13.1611V8.31109C5.54004 7.93109 5.85004 7.62109 6.23004 7.62109C6.61004 7.62109 6.92004 7.93109 6.92004 8.31109V13.1611C6.92004 13.5411 6.61004 13.8511 6.23004 13.8511Z M8.99957 13.8511C8.61957 13.8511 8.30957 13.5411 8.30957 13.1611V8.31109C8.30957 7.93109 8.61957 7.62109 8.99957 7.62109C9.37957 7.62109 9.68957 7.93109 9.68957 8.31109V13.1611C9.68957 13.5411 9.37957 13.8511 8.99957 13.8511Z" />
</svg>
