<svg viewBox="0 0 59 24" fill="none" xmlns="http://www.w3.org/2000/svg">
<path fill-rule="evenodd" clip-rule="evenodd" d="M7.72 16.0597C9.37 16.0597 10.71 17.6019 10.71 19.5151C10.71 21.4284 9.38001 22.9822 7.73001 22.9822C6.08001 22.9822 4.74002 21.44 4.74002 19.5267C4.74002 17.6135 6.07 16.0597 7.72 16.0597ZM7.72 21.0341C8.44 21.0341 9.03 20.35 9.03 19.5151C9.03 18.6803 8.44 17.9961 7.72 17.9961C7 17.9961 6.41 18.6803 6.41 19.5151C6.41 20.35 7 21.0341 7.72 21.0341ZM14.68 16.0481C16.33 16.0481 17.67 17.5903 17.67 19.5035C17.67 21.4168 16.34 22.9706 14.69 22.9706C13.04 22.9706 11.7 21.4284 11.7 19.5151C11.7 17.6019 13.03 16.0481 14.68 16.0481ZM14.68 21.0225C15.4 21.0225 15.99 20.35 15.99 19.5035C15.99 18.6571 15.41 17.9845 14.68 17.9845C13.96 17.9845 13.37 18.6571 13.37 19.5035C13.37 20.3384 13.95 21.0225 14.68 21.0225ZM21.74 16.0365C23.39 16.0365 24.73 17.5787 24.73 19.4919C24.73 21.4052 23.4 22.959 21.75 22.959C20.1 22.959 18.76 21.4168 18.76 19.5035C18.76 17.5903 20.09 16.0365 21.74 16.0365ZM21.74 21.0109C22.46 21.0109 23.05 20.3384 23.05 19.4919C23.05 18.6455 22.47 17.9729 21.74 17.9729C21.02 17.9729 20.43 18.6455 20.43 19.4919C20.43 20.3268 21.01 21.0109 21.74 21.0109ZM52 3.80331C50.49 2.34228 48.8 1.14795 47 0.243503V3.80331H52ZM46.65 0.0115979V4.5802H46.9V18.6803H25.35C24.91 16.3496 22.92 14.8654 20.91 15.3756C19.63 15.7002 18.6 16.7786 18.17 18.2048C17.51 15.9437 15.39 14.7378 13.44 15.5031C12.39 15.9205 11.55 16.8598 11.16 18.0541C10.43 15.8278 8.27001 14.703 6.35001 15.5495C5.17001 16.0713 4.3 17.2424 4.03 18.6687H0.960022V14.4247H0V0H46.65V0.0115979ZM2.27002 14.4363H1.80002V16.5931H2.27002V14.4363ZM56.55 18.228C56.6 18.4715 56.62 18.7266 56.62 18.9817C56.62 19.1905 56.6 19.3992 56.56 19.6079H58.18V18.228H56.55ZM48.48 18.228H47.23V19.6079H48.46C48.43 19.3992 48.42 19.1905 48.42 18.9817C48.42 18.7266 48.44 18.4715 48.48 18.228ZM25.39 18.9817C25.42 19.1905 25.43 19.3992 25.43 19.6079C25.43 19.7354 25.43 19.863 25.42 20.0021H46.9V18.9817H25.39ZM3.98001 18.9817H0.630005V19.9905H3.96002C3.95002 19.863 3.94 19.7354 3.94 19.6079C3.94 19.3992 3.96001 19.1905 3.98001 18.9817ZM58.07 10.8301V17.8454H56.25C55.71 15.3756 53.55 13.8797 51.42 14.5059C50 14.9233 48.89 16.2104 48.54 17.8454H47.2V4.55701H55.6L58.07 10.8185V10.8301ZM48.12 5.57741V8.87051H51.36L53.76 11.2128H56.96L55.18 5.589H48.12V5.57741ZM52.38 15.7814C54.15 15.7814 55.58 17.4395 55.58 19.4919C55.58 21.5443 54.15 23.2025 52.38 23.2025C50.61 23.2025 49.18 21.5443 49.18 19.4919C49.18 17.4395 50.61 15.7814 52.38 15.7814ZM52.38 21.1153C53.16 21.1153 53.78 20.3848 53.78 19.4919C53.78 18.5991 53.15 17.8686 52.38 17.8686C51.61 17.8686 50.98 18.5991 50.98 19.4919C50.98 20.3848 51.6 21.1153 52.37 21.1269C52.37 21.1269 52.37 21.1269 52.38 21.1269V21.1153Z" fill="#000"/>
</svg>
