<svg viewBox="0 0 38 25" fill="none" xmlns="http://www.w3.org/2000/svg">
<path fill-rule="evenodd" clip-rule="evenodd" d="M8.14999 16.4998C9.87999 16.4998 11.29 18.1232 11.29 20.1408C11.29 22.1468 9.88999 23.7817 8.14999 23.7817C6.41999 23.7817 5.01 22.1584 5 20.1408C5 18.1232 6.40001 16.4998 8.14001 16.4998H8.14999ZM8.14999 21.7409C8.90999 21.7409 9.53 21.0336 9.53 20.1524C9.53 19.2711 8.92 18.5522 8.16 18.5522C7.4 18.5522 6.78 19.2595 6.78 20.1408C6.78 21.022 7.38999 21.7293 8.14999 21.7409ZM37.05 18.8189H35.32C35.37 19.074 35.4 19.3407 35.4 19.6074C35.4 19.8277 35.38 20.0596 35.34 20.2799H37.04V18.8189H37.05ZM26.83 18.8189H25.52V20.2799H26.82C26.79 20.0596 26.78 19.8393 26.78 19.6074C26.78 19.3407 26.8 19.074 26.84 18.8189H26.83ZM11.99 19.6074C12.02 19.8277 12.04 20.048 12.04 20.2799C12.04 20.4191 12.04 20.5466 12.02 20.6858H25.17V19.619H11.99V19.6074ZM24.9 0.869141V4.45213H25.16V19.3059H11.94C11.48 16.8477 9.38999 15.2939 7.26999 15.8273C5.91999 16.1635 4.83001 17.2999 4.39001 18.8189L4.23001 18.9348H1.01001V14.8301H0V0.869141H24.9ZM2.38 14.8301H1.89001V17.1028H2.38V14.8301ZM4.19 19.2363H0.649994V20.3031H4.14999C4.14999 20.1756 4.14001 20.0364 4.14001 19.8973C4.14001 19.6769 4.16 19.4566 4.19 19.2363ZM36.93 11.0267V18.4246H35.01C34.45 15.8273 32.17 14.2503 29.93 14.8996C28.44 15.3403 27.27 16.6853 26.89 18.4246H25.48V4.42894H34.33L36.92 11.0267H36.93ZM26.45 5.49572V8.96276H29.86L32.39 11.421H35.77L33.89 5.48413H26.45V5.49572ZM30.94 16.2447C32.8 16.2447 34.31 17.9956 34.31 20.1524C34.31 22.3091 32.8 24.06 30.94 24.06C29.08 24.06 27.57 22.3091 27.57 20.1524C27.57 17.9956 29.08 16.2447 30.94 16.2447ZM30.94 21.8685C31.76 21.8685 32.42 21.1032 32.42 20.1524C32.42 19.2015 31.76 18.4362 30.94 18.4362C30.12 18.4362 29.46 19.2015 29.46 20.1524C29.46 21.1032 30.12 21.8685 30.94 21.8685Z" fill="#000"/>
</svg>
