<svg viewBox="0 0 21 24" fill="none" xmlns="http://www.w3.org/2000/svg">
<path d="M19.8302 23.2025H12.9002C12.3802 23.2373 11.9302 22.7734 11.9002 22.1705C11.9002 22.1473 11.9002 22.1241 11.9002 22.0893C11.8902 21.4632 12.3202 20.9414 12.8602 20.9298C12.8702 20.9298 12.8902 20.9298 12.9002 20.9298H16.6202C16.6202 20.9298 16.5802 20.8834 16.6202 20.8254C16.5402 20.7674 16.4702 20.6979 16.4002 20.6283C14.8802 18.8658 13.3302 17.1149 11.8102 15.306C11.4002 14.877 11.3802 14.1348 11.7502 13.671C11.8402 13.5551 11.9502 13.4623 12.0702 13.4043C12.4702 13.2072 12.9302 13.3116 13.2402 13.6594L17.0102 18.0309L17.9202 19.0861C17.9202 19.0861 18.0102 19.1905 18.0902 19.2832V14.9117C18.0802 14.2972 18.5002 13.7754 19.0302 13.7638C19.5702 13.7638 19.9902 14.2856 19.9802 14.9117V23.2025H19.8102H19.8302ZM0.180175 23.2025H0.000174909V14.9233C-0.00982509 14.2972 0.410175 13.787 0.950175 13.7754C1.49017 13.7754 1.91017 14.2972 1.90017 14.9233V19.3064C1.99017 19.202 2.03017 19.1557 2.07017 19.1093L2.98018 18.0541L6.75017 13.6826C7.06017 13.3348 7.52017 13.2304 7.92018 13.4275C8.42018 13.6942 8.64017 14.3783 8.41017 14.9697C8.35017 15.1089 8.28018 15.2364 8.18017 15.3408C6.66017 17.1497 5.11018 18.9006 3.59017 20.6631C3.53017 20.7442 3.45017 20.8138 3.37017 20.8602C3.37017 20.8602 3.37017 20.895 3.37017 20.9646H7.09018C7.63018 20.953 8.08017 21.4516 8.09017 22.0777C8.09017 22.0893 8.09017 22.1125 8.09017 22.1241C8.09017 22.7271 7.68017 23.2257 7.16017 23.2257C7.14017 23.2257 7.12018 23.2257 7.09018 23.2257H0.180175V23.2025ZM12.0802 9.79815C11.5802 9.53145 11.3602 8.84732 11.5902 8.25595C11.6502 8.11681 11.7202 7.98926 11.8202 7.8849C13.3402 6.07601 14.8902 4.3251 16.4102 2.56259C16.4702 2.48142 16.5502 2.41185 16.6302 2.36547C16.6302 2.36547 16.6302 2.33068 16.6302 2.26111H12.9102C12.3702 2.2727 11.9202 1.7741 11.9102 1.14795C11.9102 1.13635 11.9102 1.11316 11.9102 1.10156C11.9102 0.498601 12.3202 0 12.8502 0C12.8702 0 12.8902 0 12.9102 0H20.0102V8.27915C20.0302 8.9053 19.6002 9.4155 19.0702 9.43869C19.0702 9.43869 19.0702 9.43869 19.0602 9.43869C18.5202 9.43869 18.1002 8.91689 18.1102 8.29074C18.1102 8.29074 18.1102 8.29074 18.1102 8.27915V3.90766L17.9402 4.10478L17.0302 5.15997L13.2602 9.53145C13.0502 9.75176 12.7802 9.87931 12.5002 9.87931C12.3602 9.87931 12.2202 9.84453 12.0902 9.78655L12.0802 9.79815ZM6.76018 9.54305L2.99018 5.17157C2.69018 4.8237 2.39017 4.46424 2.08017 4.11638L1.91017 3.91926V8.29074C1.93017 8.91689 1.51017 9.42709 0.970175 9.45028C0.970175 9.45028 0.970175 9.45028 0.960175 9.45028C0.420175 9.43869 0.000174909 8.92849 0.0101749 8.30234H0.000174909V0.0115935H7.10017C7.62017 -0.0231928 8.07018 0.440624 8.10017 1.04359C8.10017 1.06678 8.10017 1.08997 8.10017 1.11316C8.11018 1.73932 7.68017 2.26111 7.14017 2.27271C7.13017 2.27271 7.11018 2.27271 7.10017 2.27271H3.38018C3.38018 2.27271 3.42018 2.31909 3.38018 2.37706C3.46018 2.43504 3.53017 2.49302 3.60017 2.57419C5.12017 4.33669 6.67017 6.0876 8.19017 7.89649C8.60017 8.32552 8.62017 9.06763 8.25017 9.53145C8.16017 9.6474 8.05017 9.74017 7.93017 9.79815C7.80017 9.86772 7.66017 9.9025 7.52017 9.9025C7.24017 9.9025 6.97017 9.76336 6.77017 9.54305H6.76018Z" fill="#000"/>
</svg>
