<svg viewBox="0 0 21 24" fill="none" xmlns="http://www.w3.org/2000/svg">
<path fill-rule="evenodd" clip-rule="evenodd" d="M0.0297656 18.9141L0.00976562 8.3738C0.00976562 7.97955 0.289766 7.65488 0.629766 7.65488C0.709766 7.65488 0.799766 7.67807 0.879766 7.71286L9.17977 11.8176C9.40977 11.9336 9.55977 12.1887 9.55977 12.4786L9.57977 23.0188C9.57977 23.4131 9.29977 23.7378 8.95977 23.7378C8.87977 23.7378 8.78977 23.7146 8.70977 23.6798L0.409766 19.575C0.179766 19.459 0.0297656 19.2039 0.0297656 18.9141ZM19.3598 7.59691C19.6998 7.59691 19.9798 7.92157 19.9898 8.31582L20.0098 18.8561C20.0098 19.146 19.8598 19.4011 19.6298 19.517L11.3498 23.6682C11.0298 23.8305 10.6698 23.6682 10.5298 23.2971C10.4998 23.2044 10.4798 23.1116 10.4798 23.0072L10.4598 12.467C10.4598 12.1771 10.6098 11.922 10.8398 11.806L19.1198 7.65488C19.1998 7.62009 19.2798 7.59691 19.3698 7.59691H19.3598ZM9.93976 0.546875C10.0298 0.546875 10.1098 0.570069 10.1898 0.604856L18.9198 5.0575C19.2298 5.21984 19.3798 5.64887 19.2398 6.00833C19.1798 6.17066 19.0598 6.30981 18.9198 6.37938L10.2098 10.8784C10.0498 10.9596 9.86977 10.9596 9.69977 10.8784L0.959766 6.42576C0.649766 6.26343 0.499766 5.8344 0.639766 5.47494C0.699766 5.3126 0.819766 5.17346 0.959766 5.10388L9.66977 0.604856C9.74977 0.558474 9.83977 0.546875 9.91977 0.546875H9.93976Z" fill="#000"/>
</svg>
